<svg xmlns="http://www.w3.org/2000/svg" width="206.828" height="208.264" viewBox="0 0 206.828 208.264">
  <path id="titTbg1" d="M74.795-189.795q-8.311-2.7-13.7,0Q55.7-186.2,54.58-181.484q-.9,4.043,1.572,9.209a14,14,0,0,0,7.188,5.615,27.182,27.182,0,0,0,7.861.225q6.064.674,14.6.9a7.693,7.693,0,0,1,3.818.449q10.332,3.369,17.744,1.123a9.425,9.425,0,0,1,5.615.449,17.458,17.458,0,0,0,8.76.9,22.548,22.548,0,0,1,9.434.225,27.2,27.2,0,0,0,11.006-.449,16.319,16.319,0,0,0,7.637-6.064,8.179,8.179,0,0,0-.225-8.086,7.48,7.48,0,0,0-6.289-2.92,16.541,16.541,0,0,1-8.311-1.572,20.475,20.475,0,0,0-8.984.225,11.117,11.117,0,0,1-6.289-.449q-2.92-1.348-8.984-1.348a24.019,24.019,0,0,1-13.027-2.021q-4.941-2.7-8.984-1.572Q83.779-185.3,74.795-189.795ZM26.055-93.662a19.88,19.88,0,0,1-4.268,3.369q-2.021,1.348-2.471,5.391-.225,5.615,2.7,8.311a10.869,10.869,0,0,0,7.412,2.021q4.043-.225,8.535-4.492,18.867-13.477,29.873-5.615a8.175,8.175,0,0,1,4.492,5.391q.225,6.963.9,14.6.9,2.92,3.369,2.7a9.876,9.876,0,0,0,6.514-2.021,13.859,13.859,0,0,0,3.818-5.166,13.135,13.135,0,0,1,2.7-4.941,17.811,17.811,0,0,0,2.471-6.738q-.225-3.369-1.348-4.717a15.4,15.4,0,0,1-1.572-3.145q-.674-2.246-5.615-6.738-8.76-8.76-27.627-6.738Q37.061-100.85,26.055-93.662ZM56.826-41.553a22.156,22.156,0,0,0-4.717,4.717q-1.348,1.572-2.92,3.145-1.572,1.348-3.594,3.145a11.554,11.554,0,0,0-2.246.9,47.9,47.9,0,0,0-7.861,2.471,13.851,13.851,0,0,1-6.738,2.021q-10.107-.674-16.621,8.984a10.625,10.625,0,0,0,.449,8.535q3.594,4.268,7.188,4.717,6.963,1.572,14.6-2.021Q40.654-7.861,42-9.434q.9-1.348,3.818-2.021A42.54,42.54,0,0,0,59.3-21.338q4.717-6.289,12.578-18.418a12.37,12.37,0,0,0,2.246-8.984q-.9-4.268-3.818-4.717-3.594-.225-6.514,3.818A64.591,64.591,0,0,1,56.826-41.553Zm120.84-93.662a25.567,25.567,0,0,1-8.535,13.252,11.2,11.2,0,0,0-3.594,4.268q-2.92,4.268-4.268,4.941-5.391,4.941-6.963,6.514a8.157,8.157,0,0,0-2.021,1.8q-3.369,3.594-5.84,4.268-5.615,1.348-5.84,6.738a2.046,2.046,0,0,0,.225,1.572q1.348,2.92,6.289,3.594,6.738.9,13.7-4.043.674-.225,2.471-.9a4.533,4.533,0,0,0,3.369-2.471A19.629,19.629,0,0,1,169.8-98.6a15.325,15.325,0,0,0,5.166-4.717,16.037,16.037,0,0,1,5.615-4.492q2.246-.9,4.941-4.492a7.515,7.515,0,0,1,3.818-2.7,23.97,23.97,0,0,0,6.064-4.268,34.956,34.956,0,0,0,5.391-11.68,15.907,15.907,0,0,0-1.348-11.006,8.124,8.124,0,0,0-4.717-4.717q-6.963-2.246-10.557.9Q178.789-140.83,177.666-135.215ZM59.521-121.963a71.45,71.45,0,0,1,22.236-2.471,79.614,79.614,0,0,0,17.969.674,14.286,14.286,0,0,1,6.289,3.369q1.348,12.8,1.348,17.744a47.517,47.517,0,0,0,.9,11.9,27.826,27.826,0,0,1,1.572,8.76,22.328,22.328,0,0,0,.9,7.188q.225,2.7-1.348,8.311a42.833,42.833,0,0,0-1.572,15.273,137.1,137.1,0,0,1-.674,17.52,37.5,37.5,0,0,0,0,11.68q.9,4.268-.225,12.354-4.717,21.113,5.84,26.279,4.941,1.572,9.883-1.8,3.369-2.92,4.941-10.332a40.246,40.246,0,0,0-.674-12.8,32.025,32.025,0,0,1-.449-6.963,21.057,21.057,0,0,0-.225-9.209q-2.021-6.738.449-18.867.225-2.7.225-5.166.225-.674.449-.674a30.34,30.34,0,0,0,2.471-6.064q8.76,10.332,12.129,12.129,2.92,0,6.738,4.043Q155.43-30.1,160.82-28.3a20.478,20.478,0,0,1,8.76,4.941q10.332,8.984,19.316,10.332a15.816,15.816,0,0,1,6.738,1.572,21.387,21.387,0,0,0,11.68,2.246q7.412-.9,10.107-8.086,1.572-4.717.225-7.187a17.036,17.036,0,0,1-2.246-3.594q-.225-2.7-4.268-4.268-4.717-4.268-14.15-4.492a9.051,9.051,0,0,1-5.615-2.021q-3.594-2.246-10.332-2.7Q170.928-44.922,145.1-64.014q-.674-2.92-2.7-3.594-4.043-2.246-4.717-4.043a15.688,15.688,0,0,0-6.738-8.086,46.268,46.268,0,0,0-3.818-13.926q0-11.455,1.348-26.5a9.257,9.257,0,0,1,3.818-3.818,1.777,1.777,0,0,1,1.123-.225q4.941-1.348,5.615-5.391.225-4.268-5.615-6.963-12.354-5.391-39.98-6.738a86.606,86.606,0,0,0-13.027.449q-7.637.674-19.99-2.471-9.658-3.594-17.969,0-6.963,3.594-7.412,10.557-.225,6.963,7.637,11.23Q50.088-119.941,59.521-121.963Z" transform="translate(-11.441 191.143)" fill="#44ada3" opacity="0.27"/>
</svg>
