<svg xmlns="http://www.w3.org/2000/svg" width="199.247" height="214.034" viewBox="0 0 199.247 214.034"><defs><style>.a{fill:#44ada3;opacity:0.27;}</style></defs><path class="a" d="M48.066-124.883a45.519,45.519,0,0,1-16.621,2.246q-6.963-.674-10.332,2.246a10.81,10.81,0,0,0-2.92,7.188,9.624,9.624,0,0,0,4.941,6.963q5.615,2.246,13.027-.674a13.02,13.02,0,0,1,4.268-1.348q1.348,1.572,3.145,3.594-1.348,6.963-4.492,10.557Q28.75-83.33,31.221-71.2a9.518,9.518,0,0,0,.9,2.7,8.042,8.042,0,0,0,3.594,4.043q2.7.9,7.412-2.246a10.126,10.126,0,0,0,4.717-7.637,16.479,16.479,0,0,1,2.7-6.738A19.678,19.678,0,0,0,51.66-87.6q0-10.332,3.369-14.6a15.874,15.874,0,0,0,2.021-5.391,2.613,2.613,0,0,1,.674-.449,10.37,10.37,0,0,1,9.658-3.369,19.486,19.486,0,0,0,1.8,2.021q4.717,3.369,3.369,12.129a22.359,22.359,0,0,0-.449,5.615,17.788,17.788,0,0,1-.225,2.92q-2.7,19.092,4.941,22.461a11.631,11.631,0,0,0,6.738-.225q3.369-.9,4.941-8.086a37.185,37.185,0,0,0-.449-16.172,9.312,9.312,0,0,1,.225-3.594,13.065,13.065,0,0,0-.225-4.043,14.316,14.316,0,0,1-.225-5.615,31.687,31.687,0,0,0,.449-8.76,9.958,9.958,0,0,1,.449-5.84,14.55,14.55,0,0,0,0-6.289,27.177,27.177,0,0,1,0-4.941,9.425,9.425,0,0,0-.674-4.492q0-12.8.449-14.15a33.752,33.752,0,0,0-.449-17.295,12.37,12.37,0,0,1-.449-4.717,12.619,12.619,0,0,0,.449-4.492,18.026,18.026,0,0,1,0-4.043q1.572-6.963-1.572-11.006-2.7-2.92-7.637-2.246-4.043.225-6.289,4.717-2.246,4.268-1.123,11.9a13.555,13.555,0,0,1,.225,5.615,12.952,12.952,0,0,0,.449,4.717v3.594a13.77,13.77,0,0,0-1.348,2.471q-.9.9-2.471,2.246-8.76-1.572-14.824.449a9.413,9.413,0,0,1-3.594-2.92q.225-4.941.9-10.332-.225-3.369-.225-5.84a18.329,18.329,0,0,0-.674-6.738,10.25,10.25,0,0,0-5.615-6.514,7.174,7.174,0,0,0-6.289-.225q-4.717,2.7-5.84,6.064a13.964,13.964,0,0,0,.225,7.412q0,.674,2.471,9.209a31.429,31.429,0,0,1,1.572,4.492,6.438,6.438,0,0,0,.674,2.92,5.172,5.172,0,0,0-.674,1.348,24.57,24.57,0,0,0-1.572,2.471,6.742,6.742,0,0,0-4.717,2.246,9.3,9.3,0,0,0-3.818,8.535q.9,4.941,6.963,6.738a19.1,19.1,0,0,0,12.129-.9,27.411,27.411,0,0,1,6.738-2.471q3.369,0,10.781-2.471a16.452,16.452,0,0,1,5.391-.449,60.09,60.09,0,0,1,5.84,6.514q-.225,0,0,.225,0,3.369-4.717,8.311-6.963.9-13.027,2.246-4.941.674-5.615,1.123A5.981,5.981,0,0,0,48.066-124.883Zm96.357-65.361a24.138,24.138,0,0,1-11.23,6.738,8.223,8.223,0,0,0-4.268,1.8q-3.594,2.246-5.166,2.246a2.987,2.987,0,0,0-1.8.674,52.863,52.863,0,0,0-7.187,2.021q-3.594,1.572-5.615,1.123-6.064-.674-7.187,4.043,0,2.7,3.369,4.941,4.717,2.92,11.68,2.021.225-.225,1.8,0a6.8,6.8,0,0,0,3.369-.449,8.854,8.854,0,0,1,3.145-1.123q12.8-3.369,16.4-4.941a7.114,7.114,0,0,1,3.594-.9q10.781.9,16.172-12.578a22.209,22.209,0,0,1,.225-3.145,6.9,6.9,0,0,0-1.572-4.717q-4.043-3.594-7.637-2.92A14.935,14.935,0,0,0,144.424-190.244ZM115.9-162.168a9.891,9.891,0,0,0-5.615-.225,10.065,10.065,0,0,0-5.391,2.471,17.67,17.67,0,0,0-2.471,5.615q0,4.043.9,4.941l2.7,5.391a2.3,2.3,0,0,1,2.246,2.246q.225.9,2.92,1.123a10.531,10.531,0,0,0,6.064-1.572q3.594-2.021,3.594-3.594a10.749,10.749,0,0,1,1.348-4.043q1.348-1.572.449-2.92a3.671,3.671,0,0,1-.674-2.7q.225-1.572-1.8-4.268A10.712,10.712,0,0,0,115.9-162.168Zm35.039-4.492a9.891,9.891,0,0,0-5.615-.225,10.065,10.065,0,0,0-5.391,2.471,17.67,17.67,0,0,0-2.471,5.615q0,4.043.9,4.941l2.7,5.391a3.332,3.332,0,0,1,1.572.9q-13.7,6.738-18.418,7.188-6.064,0-9.434,3.145a8.1,8.1,0,0,0-2.246,8.086q.225,2.246,3.369,4.043,2.7,2.021,8.984.449,8.76-1.348,25.381-13.027a22.122,22.122,0,0,1,6.514-3.594q1.348,0,20.215-10.332,3.369-1.572,3.818-3.369.674-4.043,8.984-6.289a17.992,17.992,0,0,0,7.412-4.492q3.594-4.043,2.471-8.311a7.885,7.885,0,0,0-3.818-5.615,9.916,9.916,0,0,0-5.615-2.471,12.2,12.2,0,0,1-5.84-1.8q-2.7-2.021-7.861-1.348-7.637.225-8.76,3.369-.9,3.594,2.7,5.391,5.391,3.369,2.92,8.535a8.707,8.707,0,0,0-2.471,2.7q-2.7,2.021-5.391,4.268-.9.674-7.637,5.391a1.89,1.89,0,0,0-.225-1.572,3.671,3.671,0,0,1-.674-2.7q.225-1.572-1.8-4.268A10.712,10.712,0,0,0,150.938-166.66Zm13.477,42.227q-22.91,2.021-23.359,2.471a11.205,11.205,0,0,1-7.637,1.572q-28.975,0-34.814,6.514a8.128,8.128,0,0,0-2.246,6.738q.225,4.268,4.941,6.289a14.809,14.809,0,0,0,9.209-1.123,36.861,36.861,0,0,0,10.781-1.8,5.842,5.842,0,0,0,.9,1.572q8.984,10.781,16.621,11.9,4.941,1.348,6.514-.674,1.572-1.572,1.123-6.289-.225-2.7-5.166-8.311a2.56,2.56,0,0,0-.9-1.8,23.115,23.115,0,0,0,7.637-.9q5.615-1.348,8.76,0,9.658,1.348,10.781,2.7.9.9,2.246,2.471,2.021,7.412-2.92,15.723a5.912,5.912,0,0,1-4.043,3.145,7.159,7.159,0,0,1-3.818.674,6.985,6.985,0,0,0-2.92-1.123q-13.7-3.369-15.723-.674a4.291,4.291,0,0,0-1.123,4.043q.225,2.7,4.043,4.941A13.7,13.7,0,0,0,148.691-73,23.447,23.447,0,0,1,155.43-69.4a14.269,14.269,0,0,0,5.391,1.8,22.049,22.049,0,0,1,6.514,1.123,16.673,16.673,0,0,0,6.514,1.572,12.993,12.993,0,0,0,6.738-1.348,18.14,18.14,0,0,0,4.717-7.187q1.572-6.289.449-9.434-1.348-4.717-2.7-19.766a43.088,43.088,0,0,1,5.166-5.615,2.5,2.5,0,0,1,1.123.225q6.963,2.246,12.354.225,4.717-2.246,4.492-6.289a8.036,8.036,0,0,0-3.818-7.187q-2.021-1.348-14.824-2.471l-2.246-2.246a12.84,12.84,0,0,0,1.572-5.84q.674-3.594-2.471-8.311-2.7-4.717-6.963-5.615-3.594-.225-7.637,4.717-2.021,2.246-1.572,8.76a27.179,27.179,0,0,1,0,4.941l-2.92,2.92Q164.639-124.658,164.414-124.434ZM33.018-51.66q-6.289-2.021-13.477,3.369-3.594,2.92-3.594,8.535.225,4.717,4.941,7.188,4.717,2.246,10.781.449,8.984-1.572,18.643-3.369A15.125,15.125,0,0,0,58.4-39.98q2.246-2.246,1.123-5.84-.9-2.7-7.637-4.268a15.294,15.294,0,0,0-10.557-.674A16.992,16.992,0,0,1,33.018-51.66Zm68.73,33.916q5.615-8.984,3.818-11.455-2.021-2.246-4.941-.449a22.854,22.854,0,0,0-7.187,5.84q-3.369,4.268-6.064,5.166a32.769,32.769,0,0,1-8.76,5.615,13.985,13.985,0,0,0-4.717,2.7A7.526,7.526,0,0,1,71.2-8.76a7.721,7.721,0,0,0-3.818,1.572Q65.811-5.84,61.768-5.615a16.264,16.264,0,0,0-5.391.674,9.073,9.073,0,0,1-6.963,1.123Q33.916-8.086,31,4.043q-.9,2.92,1.8,7.412,1.572,2.92,7.637,5.166a10.767,10.767,0,0,0,7.412.449,9.066,9.066,0,0,1,4.941-.449A5.288,5.288,0,0,0,56.377,15.5a3.671,3.671,0,0,1,2.7-.674,1.737,1.737,0,0,0,1.572-.449,4.035,4.035,0,0,1,2.471-.674,8.072,8.072,0,0,0,4.043-1.8A16.387,16.387,0,0,1,71.65,9.434q3.369,0,14.6-11.23A25.493,25.493,0,0,1,90.293-5.84a9.015,9.015,0,0,0,2.92-2.92,36.022,36.022,0,0,1,5.166-4.717Q99.277-13.7,101.748-17.744Zm48.965-41.777q-15.049-.9-25.156.9a45.609,45.609,0,0,0-3.818-3.145,24.244,24.244,0,0,0,1.123-8.086,2.7,2.7,0,0,1,.225-1.8,13.619,13.619,0,0,0,.9-7.187q-.225-2.7-1.348-3.594a9.382,9.382,0,0,1-2.471-3.369q-.674-1.348-4.492-1.572a12.365,12.365,0,0,0-6.963,1.348q-3.369,2.246-3.145,5.391a5.144,5.144,0,0,1-.674,2.7,4.253,4.253,0,0,0,0,3.818q.674.9-.449,3.145a5.53,5.53,0,0,0,.225,2.7,18.587,18.587,0,0,0,.449,4.043,1.724,1.724,0,0,0,.225.674q-2.246,2.7-4.941,5.615-19.092-.674-32.344,6.514-3.594,2.246-3.145,5.84.674,3.369,4.492,4.268,4.717.9,21.113-.449,1.348,0,10.781-.225a17.1,17.1,0,0,1,3.145,3.818,3.883,3.883,0,0,0,1.348,2.7q.674,2.021,2.021,2.246.9,0,2.7-1.572a18.182,18.182,0,0,1,10.107,5.391,106.3,106.3,0,0,1,4.941,10.332q.225,1.572,2.92,4.268a60.242,60.242,0,0,1,5.166,5.84q2.246,3.594,7.637,5.391a6.529,6.529,0,0,1,4.492,2.246q5.615,6.738,10.107,7.637a19.942,19.942,0,0,1,6.963,3.369q8.311,6.289,15.273,6.963a15.625,15.625,0,0,1,5.84.674,24.485,24.485,0,0,0,9.434,1.123,9.974,9.974,0,0,0,7.637-7.637q.9-3.594-.449-5.615a7.923,7.923,0,0,1-2.021-2.92Q198.33.225,194.736-.9q-4.043-2.92-11.9-2.471a10.4,10.4,0,0,1-4.268-1.123,17.825,17.825,0,0,0-8.086-1.123Q159.7-7.861,141.5-19.99l-.449-.449q-2.7-2.246-5.84-4.717a9.34,9.34,0,0,0-3.594-4.268q-2.7-1.572-2.92-2.7a13.132,13.132,0,0,0-1.123-1.348,102.249,102.249,0,0,1,.449-10.781,21.512,21.512,0,0,1,6.289.449,32.6,32.6,0,0,0,10.107.225,21.7,21.7,0,0,1,7.861,1.123q2.92.9,11.68,1.348,8.984,0,19.99,5.615a32.6,32.6,0,0,0,15.723.674q5.615-.9,6.963-5.391a8.273,8.273,0,0,0-1.348-7.861,19.493,19.493,0,0,0-9.658-6.289,33.151,33.151,0,0,0-14.375-.9,96.972,96.972,0,0,1-12.354-1.8Q158.574-58.623,150.713-59.521ZM207.09-83.779A8.733,8.733,0,0,0,200.576-84a10.1,10.1,0,0,0-6.064,2.92,20.765,20.765,0,0,0-2.7,6.514q0,4.268.9,5.391a17.607,17.607,0,0,1,1.8,4.043,5.569,5.569,0,0,0,1.572,2.246,2.716,2.716,0,0,1,2.471,2.471q.225.9,3.369,1.572a10.727,10.727,0,0,0,6.738-2.021q4.268-2.246,4.268-4.043a12.878,12.878,0,0,1,1.348-4.492q1.572-2.021.449-3.369a5.3,5.3,0,0,1-.674-3.369q.225-2.021-2.021-4.717A8.932,8.932,0,0,0,207.09-83.779Z" transform="translate(-15.947 195.517)"/></svg>