<svg id="圖層_1" data-name="圖層 1" xmlns="http://www.w3.org/2000/svg" viewBox="0 0 231 58.38"><defs><style>.cls-1{fill:#e16810;}.cls-2{fill:#901d32;}.cls-3{fill:#eeb619;}.cls-4{fill:#1b9cc9;}.cls-5{fill:#da3b1d;}.cls-6{fill:#cfa214;}.cls-7{fill:#d51721;}.cls-8{fill:none;}.cls-9{fill:#8f2a82;}.cls-10{fill:#14325e;}.cls-11{fill:#014981;}.cls-12{fill:#417636;}.cls-13{fill:#ca8e0b;}.cls-14{fill:#ea9d17;}.cls-15{fill:#cc1372;}.cls-16{fill:#188f3b;}.cls-17{fill:#bb1a2a;}.cls-18{fill:#2f9f3a;}.cls-19{fill:#1170ae;}.cls-20{fill:#109a8a;}.cls-21{fill:#6d6e68;}.cls-22{isolation:isolate;}.cls-23{fill:#4aa893;}</style></defs><title>logo</title><g id="组_7360" data-name="组 7360"><g id="logo"><g id="earth2"><circle id="椭圆_195" data-name="椭圆 195" class="cls-1" cx="55.83" cy="29.18" r="3.1"/><circle id="椭圆_196" data-name="椭圆 196" class="cls-2" cx="54.76" cy="21.76" r="3.1"/><circle id="椭圆_197" data-name="椭圆 197" class="cls-3" cx="51.65" cy="14.93" r="3.1"/><circle id="椭圆_198" data-name="椭圆 198" class="cls-4" cx="46.73" cy="9.27" r="3.1"/><circle id="椭圆_199" data-name="椭圆 199" class="cls-5" cx="40.42" cy="5.21" r="3.1"/><circle id="椭圆_200" data-name="椭圆 200" class="cls-6" cx="18.52" cy="5.2" r="3.1"/><circle id="椭圆_201" data-name="椭圆 201" class="cls-7" cx="12.21" cy="9.26" r="3.1"/><circle id="椭圆_202" data-name="椭圆 202" class="cls-8" cx="7.29" cy="14.94" r="3.1"/><circle id="椭圆_203" data-name="椭圆 203" class="cls-8" cx="4.18" cy="21.76" r="3.1"/><circle id="椭圆_204" data-name="椭圆 204" class="cls-8" cx="4.17" cy="36.61" r="3.1"/><circle id="椭圆_205" data-name="椭圆 205" class="cls-9" cx="7.25" cy="43.38" r="3.09"/><circle id="椭圆_206" data-name="椭圆 206" class="cls-10" cx="12.21" cy="49.1" r="3.1"/><circle id="椭圆_207" data-name="椭圆 207" class="cls-11" cx="18.52" cy="53.16" r="3.1"/><circle id="椭圆_208" data-name="椭圆 208" class="cls-12" cx="40.41" cy="53.17" r="3.1"/><circle id="椭圆_209" data-name="椭圆 209" class="cls-13" cx="46.73" cy="49.11" r="3.1"/><circle id="椭圆_210" data-name="椭圆 210" class="cls-14" cx="51.65" cy="43.44" r="3.1"/><circle id="椭圆_211" data-name="椭圆 211" class="cls-15" cx="54.76" cy="36.62" r="3.1"/><circle id="椭圆_212" data-name="椭圆 212" class="cls-16" cx="25.71" cy="3.1" r="3.1"/><circle id="椭圆_213" data-name="椭圆 213" class="cls-17" cx="33.22" cy="3.1" r="3.1"/><circle id="椭圆_214" data-name="椭圆 214" class="cls-18" cx="25.71" cy="55.28" r="3.1"/><circle id="椭圆_215" data-name="椭圆 215" class="cls-19" cx="33.22" cy="55.28" r="3.1"/><path id="路径_16176" data-name="路径 16176" class="cls-20" d="M1.76,18.38a1,1,0,0,0-1.39.93,1.78,1.78,0,0,0,.57,1.36,1.89,1.89,0,0,1-.3,1.66,0.93,0.93,0,0,0,0,.62S0,23.51,1.47,25.77a0.46,0.46,0,0,0,.25.61h0a0.5,0.5,0,0,0,.2,0s0.46-.07.71,2c0,0-.08.15,0.15,0.28,0,0-.26.25,0.64,1.13a0.85,0.85,0,0,1,.21.51,1.16,1.16,0,0,0,.36.46,1.08,1.08,0,0,0,.33.83,0.69,0.69,0,0,1,.3.37s-0.2.22,0.51,0.56a2.5,2.5,0,0,1,.56,1.15,0.17,0.17,0,0,0,.22.09,1.1,1.1,0,0,0,.29.58S6,34.49,6.45,34.92a3.79,3.79,0,0,0,.93,1.43,1.23,1.23,0,0,0,.67,1.28s0.31,1.11.9,0.93a17.42,17.42,0,0,1,2,1,1.14,1.14,0,0,0,.56.65s-0.14.39,0.6,0.74a1.43,1.43,0,0,0,.63.46,0.42,0.42,0,0,0,.37.46H13.2a3.62,3.62,0,0,1,1.66-.2,9.08,9.08,0,0,0,2.17.38,0.81,0.81,0,0,1,.53.23,0.51,0.51,0,0,0,.64,0,0.73,0.73,0,0,1,.59.14s0.33,0.18.33-.15A0.93,0.93,0,0,0,20,41.79s0.46,0,.46-0.29c0,0,.09.66,0.39-0.07a14.15,14.15,0,0,1,1.57-.54,0.67,0.67,0,0,0,.84.11,6.11,6.11,0,0,1,1.57.6c0.31,0.27.39,0.46,0.69,0.29,0,0,1.17.7,0.77-.26,0,0-.2-0.27.59-0.49,0,0,.31-0.06.29-0.23,0,0,.07-0.32-0.4-0.17s-0.46-.12-0.46-0.12a0.84,0.84,0,0,0-.46-0.83S24.67,39.1,24.29,39A1.79,1.79,0,0,1,23.11,38a1.3,1.3,0,0,1-.61-0.51c-0.17-.32-1.23-1.74-1.23-1.74a0.81,0.81,0,0,1,0-.62A1,1,0,0,0,21,34.53a0.44,0.44,0,0,0,0-.46c-0.19-.21-0.71-0.26-0.63-0.66A3.39,3.39,0,0,0,19.76,32a0.84,0.84,0,0,0-.43-0.55A1.14,1.14,0,0,1,19,30.63a5.12,5.12,0,0,1-1-.77,2.88,2.88,0,0,0-1-1.19A8.8,8.8,0,0,1,16.38,28a2.21,2.21,0,0,0-.72-0.51,15.38,15.38,0,0,1-1.45-1.36c-0.41-.51-0.64-0.37-1-0.83s-0.46,0-.88-1a0.77,0.77,0,0,0-.55-0.14c-0.29.1-.22-0.43-0.52-0.66a1.07,1.07,0,0,1-.6-1.14s0.16-.34-1.12-1.13a2.79,2.79,0,0,1-.33-0.72c0-.16,0-0.4-0.4-0.32a0.78,0.78,0,0,0-.88-0.66l-0.17,0a5.27,5.27,0,0,0-1.39-.41S5,17.94,5.32,16.94a0.26,0.26,0,0,0-.2-0.38s-0.23-.16-0.41.37c0,0-.12.2-0.46,0,0,0-.53-0.57-0.83,0a1.16,1.16,0,0,1-.51.67,2,2,0,0,0-.48.55C2.32,18.44,2,17.64,1.76,18.38Z"/><path id="路径_16177" data-name="路径 16177" class="cls-20" d="M40.8,35.56a1.71,1.71,0,0,1-2,.13,4.6,4.6,0,0,0-.68-0.33,3.93,3.93,0,0,0-3.58.6c-0.67-1.6-2.65-3.55-3.43-2.21a5.15,5.15,0,0,0-.38,2.08c0,0.53-.09,1.06-0.18,1.58a3.7,3.7,0,0,1-.19.74,1,1,0,0,0-.08.17C30,38.6,29.47,38.2,29.18,38a4.75,4.75,0,0,1-1.33-1.56c-0.2-.38-0.37-0.79-0.56-1.17q-0.53-1-1.1-2a23.31,23.31,0,0,0-3.25-4.48c-0.59-.6-1.25-1.15-1.83-1.76a1.89,1.89,0,0,1-.65-1,1.49,1.49,0,0,1,.66-0.83c0.53-.46,1.3-0.93,1.2-1.74A2.11,2.11,0,0,0,21,22.11a8,8,0,0,0-2.69-.69,10.23,10.23,0,0,0-2.5.08,2.24,2.24,0,0,1-.72-0.77c-0.26-.35-0.46-0.72-0.72-1.07a21.27,21.27,0,0,0-1.63-2,15.18,15.18,0,0,0-4.23-3.25,10.49,10.49,0,0,0-5.08-1.12,4.13,4.13,0,0,0-2.26.53,2.87,2.87,0,0,0-1.2,2,2.71,2.71,0,0,1,2.09-2A8.64,8.64,0,0,1,5.48,14a11.61,11.61,0,0,1,4.64,2.49,17.21,17.21,0,0,1,3.58,4.18,5,5,0,0,0,1.62,2,2.84,2.84,0,0,0,1.59.06,8.84,8.84,0,0,1,2.68.37,3,3,0,0,1,1.22.59c-0.16.14-.41,0.28-0.51,0.36a5.25,5.25,0,0,0-.67.61A2,2,0,0,0,19,26.39c0.24,1.24,1.45,2.09,2.32,2.93a19.91,19.91,0,0,1,3.33,4.39q0.74,1.23,1.39,2.5a8.52,8.52,0,0,0,1.39,2.21c0.93,0.93,3,2.2,4,.65a5.08,5.08,0,0,0,.6-2.26,14.4,14.4,0,0,1,.16-2c0.24-.24,1.86,1.06,2.11,2a1.2,1.2,0,0,0,.64-0.2,3.22,3.22,0,0,1,1.67-.4,4.12,4.12,0,0,1,1.49.31h0c0.93,0.25,2.32.24,2.67-.88Z"/><path id="路径_16178" data-name="路径 16178" class="cls-20" d="M40.8,35.56a9.33,9.33,0,0,1-3.19,5.34,7.12,7.12,0,0,1-3.21,1.35,10.81,10.81,0,0,1-1.77.14,6.67,6.67,0,0,0-1.36,0H31.18a3.17,3.17,0,0,0-.93.83,7.43,7.43,0,0,1-1.17,1.06A4.71,4.71,0,0,1,27.2,45a6.63,6.63,0,0,1-5-1.1,8.12,8.12,0,0,0,4.88-.1,4.26,4.26,0,0,0,1.1-.57,6.78,6.78,0,0,0,.93-1,3.72,3.72,0,0,1,1.66-1.39,5.47,5.47,0,0,1,1.48-.11A11.67,11.67,0,0,0,35,40.51a8.36,8.36,0,0,0,4.38-2.93C39.86,36.9,40.35,36.21,40.8,35.56Z"/><path id="路径_16179" data-name="路径 16179" class="cls-21" d="M30.68,28.32a0.78,0.78,0,0,0-.31-0.66,4.09,4.09,0,0,0-1.09-.46A8.3,8.3,0,0,1,28,26.7a2,2,0,0,1-1.24-1.82,1.75,1.75,0,0,1,.33-1.07,2.19,2.19,0,0,1,1-.74,3.71,3.71,0,0,1,1.46-.25,3.34,3.34,0,0,1,1.39.28,2.24,2.24,0,0,1,1,.83,2.1,2.1,0,0,1,.3,1.13H30.69a1,1,0,0,0-.32-0.79A1.32,1.32,0,0,0,29.48,24a1.39,1.39,0,0,0-.83.23,0.74,0.74,0,0,0-.31.62,0.71,0.71,0,0,0,.36.6,4,4,0,0,0,1.06.46,4.6,4.6,0,0,1,1.86,1,1.91,1.91,0,0,1,.61,1.44,1.76,1.76,0,0,1-.72,1.5,3.15,3.15,0,0,1-1.93.54A3.76,3.76,0,0,1,28,30.08a2.46,2.46,0,0,1-1.06-.84A2.2,2.2,0,0,1,26.56,28h1.51a1.19,1.19,0,0,0,1.46,1.22A1.42,1.42,0,0,0,30.36,29,0.7,0.7,0,0,0,30.68,28.32Z"/><path id="路径_16180" data-name="路径 16180" class="cls-21" d="M33,30.26V22.92h2.25a3.4,3.4,0,0,1,1.73.44,3,3,0,0,1,1.21,1.25,3.85,3.85,0,0,1,.43,1.83v0.33a3.82,3.82,0,0,1-.43,1.82A3,3,0,0,1,37,29.83a3.46,3.46,0,0,1-1.73.46H33v0Zm1.5-6.12V29h0.75a1.66,1.66,0,0,0,1.36-.58,2.63,2.63,0,0,0,.46-1.67V26.42a2.69,2.69,0,0,0-.46-1.67,1.66,1.66,0,0,0-1.36-.57H34.53v0Z"/><path id="路径_16181" data-name="路径 16181" class="cls-21" d="M45.34,29.33a2.61,2.61,0,0,1-1.16.76,4.81,4.81,0,0,1-1.66.26,3.25,3.25,0,0,1-1.67-.41,2.83,2.83,0,0,1-1.11-1.21,4.25,4.25,0,0,1-.4-1.86V26.37a4.47,4.47,0,0,1,.38-1.9,2.71,2.71,0,0,1,1.07-1.23,3.51,3.51,0,0,1,3.71.19,2.67,2.67,0,0,1,.83,1.81H43.89a1.48,1.48,0,0,0-.46-0.93A1.43,1.43,0,0,0,42.5,24a1.33,1.33,0,0,0-1.18.58,3,3,0,0,0-.41,1.72v0.46a2.9,2.9,0,0,0,.46,1.75,1.51,1.51,0,0,0,1.29.59,1.66,1.66,0,0,0,1.2-.35V27.52H42.47V26.4h2.86v2.93Z"/><path id="路径_16182" data-name="路径 16182" class="cls-21" d="M49.27,28.75A0.46,0.46,0,0,0,49,28.32a3.1,3.1,0,0,0-.84-0.27q-1.94-.41-1.95-1.66a1.5,1.5,0,0,1,.6-1.22,2.42,2.42,0,0,1,1.57-.46,2.63,2.63,0,0,1,1.66.49,1.52,1.52,0,0,1,.62,1.26H49.21a0.7,0.7,0,0,0-.2-0.53,0.93,0.93,0,0,0-1.17,0,0.53,0.53,0,0,0-.2.43,0.44,0.44,0,0,0,.2.4,2.39,2.39,0,0,0,.77.26,6.13,6.13,0,0,1,.93.24,1.5,1.5,0,0,1,1.16,1.46,1.39,1.39,0,0,1-.64,1.21,2.79,2.79,0,0,1-1.67.46,3,3,0,0,1-1.21-.3,2.06,2.06,0,0,1-.83-0.67,1.54,1.54,0,0,1-.3-0.93h1.39a0.75,0.75,0,0,0,.29.6,1.13,1.13,0,0,0,.71.21,1.08,1.08,0,0,0,.63-0.16A0.49,0.49,0,0,0,49.27,28.75Z"/><path id="路径_16183" data-name="路径 16183" class="cls-21" d="M23,16.14h-1.5v4.18h-0.6V16.14H19.46v-0.5h3.59v0.5Z"/><path id="路径_16184" data-name="路径 16184" class="cls-21" d="M26,19.08h-2l-0.46,1.21H23l1.78-4.64h0.54l1.78,4.64H26.49Zm-1.77-.51h1.58L25,16.39Z"/><path id="路径_16185" data-name="路径 16185" class="cls-21" d="M28.58,20.29H28V15.64h0.62v4.64Z"/><path id="路径_16186" data-name="路径 16186" class="cls-21" d="M30.88,18.83L31,19.44l0.14-.55L32,15.64h0.5l0.9,3.25,0.13,0.57,0.14-.62,0.72-3.18H35l-1.15,4.64H33.31l-1-3.39-0.07-.36-0.07.36-1,3.39H30.64l-1.12-4.64h0.65Z"/><path id="路径_16187" data-name="路径 16187" class="cls-21" d="M38.28,19.08H36.33l-0.46,1.21H35.26L37,15.65h0.54l1.78,4.64H38.7Zm-1.77-.51h1.58l-0.83-2.18Z"/><path id="路径_16188" data-name="路径 16188" class="cls-21" d="M43.58,20.29H43L40.64,16.7v3.58H40V15.65h0.61L43,19.27V15.64h0.61v4.64h0Z"/></g><g id="國家永續發展獎" class="cls-22"><g class="cls-22"><path d="M69.74,25.8H68a0.29,0.29,0,0,1-.2,0,0.35,0.35,0,0,1,0-.2l0-8.53V12.67l0-6.06a0.39,0.39,0,0,1,0-.24,0.4,0.4,0,0,1,.2,0l2.9,0H83.16l2.88,0a0.33,0.33,0,0,1,.24.05,0.43,0.43,0,0,1,0,.21l0,5.3V17l0,8.51a0.25,0.25,0,0,1-.05.2,0.43,0.43,0,0,1-.21,0H84.28a0.31,0.31,0,0,1-.21,0,0.37,0.37,0,0,1,0-.19V24.66H70v0.9a0.34,0.34,0,0,1,0,.21A0.4,0.4,0,0,1,69.74,25.8ZM70,8.38V22.7H84V8.38H70ZM77.29,18a7.83,7.83,0,0,0-.13,1,1.19,1.19,0,0,1-.13.64,1.69,1.69,0,0,1-.58.24q-2,.57-3.82.92a4.64,4.64,0,0,0-1,.29,1.49,1.49,0,0,1-.31.13A0.33,0.33,0,0,1,71,20.85a17,17,0,0,1-.38-1.68A14,14,0,0,0,72.51,19,31,31,0,0,0,77.29,18ZM74,12.37l-2.91,0a0.37,0.37,0,0,1-.23,0,0.4,0.4,0,0,1,0-.2V10.89a0.39,0.39,0,0,1,0-.24,0.43,0.43,0,0,1,.21,0l2.91,0h3.41V10.29a13.66,13.66,0,0,0-.15-1.78,12.48,12.48,0,0,1,1.85.16q0.5,0.06.5,0.3a1.18,1.18,0,0,1-.09.38,3.79,3.79,0,0,0-.11,1.17v0.15h1.83a9.7,9.7,0,0,0-1-1.43,0.28,0.28,0,0,1-.09-0.14A0.3,0.3,0,0,1,80.3,9l0.86-.44a0.56,0.56,0,0,1,.19-0.05,0.38,0.38,0,0,1,.23.15,8.87,8.87,0,0,1,1,1.22,0.42,0.42,0,0,1,.09.19,0.33,0.33,0,0,1-.19.2l-0.79.44,1,0H83a0.39,0.39,0,0,1,.24,0,0.51,0.51,0,0,1,0,.23v1.27a0.27,0.27,0,0,1-.05.21,0.43,0.43,0,0,1-.21,0l-2.9,0H79.49a33,33,0,0,0,.48,4,11,11,0,0,0,.55-1.26,8.65,8.65,0,0,0,.5-1.78,14.82,14.82,0,0,1,1.69.66,0.45,0.45,0,0,1,.29.35,0.77,0.77,0,0,1-.24.33,5,5,0,0,0-.58,1.14,16.66,16.66,0,0,1-1.54,2.89q0.62,1.56,1,1.56t0.77-2a7.14,7.14,0,0,0,1,.84,0.76,0.76,0,0,1,.42.47,3,3,0,0,1-.11.54q-0.55,2-2.05,2t-2.4-1.89a13.27,13.27,0,0,1-2.35,1.84,1.14,1.14,0,0,1-.53.21,1,1,0,0,1-.48-0.4A8.74,8.74,0,0,0,75,21a11,11,0,0,0,3.59-2.54,25.56,25.56,0,0,1-1-6.07H74Zm0.86,0.95,1.58,0a0.31,0.31,0,0,1,.21,0,0.4,0.4,0,0,1,0,.2l-0.05,1.35V16.1l0.05,1.34a0.29,0.29,0,0,1,0,.2,0.4,0.4,0,0,1-.2,0l-1.58,0H73.35l-1.6,0a0.29,0.29,0,0,1-.2,0,0.48,0.48,0,0,1,0-.19l0-1.34V14.87l0-1.35a0.4,0.4,0,0,1,0-.21,0.34,0.34,0,0,1,.19,0l1.6,0h1.53Zm0.13,3V14.63H73.22v1.71H75Z"/><path d="M90.2,23.1A28.47,28.47,0,0,0,100,18.23a10.06,10.06,0,0,0-.44-1.05,31.58,31.58,0,0,1-7,3.33,3.56,3.56,0,0,1-.53.15,0.73,0.73,0,0,1-.42-0.46,4.92,4.92,0,0,0-1-1.24,24.72,24.72,0,0,0,8-3.3A9.16,9.16,0,0,0,98,14.74a28.48,28.48,0,0,1-4.73,1.9,2.35,2.35,0,0,1-.5.11,0.59,0.59,0,0,1-.4-0.37,4.84,4.84,0,0,0-1-1.3,26.11,26.11,0,0,0,6.89-2.35H97.13l-2.94,0a0.33,0.33,0,0,1-.24-0.05,0.4,0.4,0,0,1,0-.2V11.13A0.33,0.33,0,0,1,94,10.89a0.43,0.43,0,0,1,.21,0l2.94,0h6.25l3,0a0.34,0.34,0,0,1,.21,0,0.51,0.51,0,0,1,0,.23v1.39a0.37,0.37,0,0,1,0,.23,0.4,0.4,0,0,1-.2,0l-2.9,0A18,18,0,0,0,104.52,16a18.15,18.15,0,0,0,1.36-1.43,8.54,8.54,0,0,0,.95-1.32,14.71,14.71,0,0,1,1.61,1.24,0.63,0.63,0,0,1,.33.44,0.35,0.35,0,0,1-.29.33,6.73,6.73,0,0,0-1,.87q-1.11,1.06-2,1.76a14.56,14.56,0,0,0,5,4.57,6.59,6.59,0,0,0-1.18,1.51,0.9,0.9,0,0,1-.44.5,2.21,2.21,0,0,1-.46-0.27,16.38,16.38,0,0,1-4.65-5.25,25.63,25.63,0,0,1-2.37-6.19h-0.11a16.89,16.89,0,0,1-1.49,1,12.05,12.05,0,0,1,2.88,7.79,5.05,5.05,0,0,1-.81,3.34,3.34,3.34,0,0,1-2.51.77q-0.75,0-1.15,0a1,1,0,0,1-.55-0.13A1.11,1.11,0,0,1,97.48,25a4.53,4.53,0,0,0-.64-1.58,20.71,20.71,0,0,0,2.29.13,1.16,1.16,0,0,0,1.06-.43,3.51,3.51,0,0,0,.28-1.69,10.32,10.32,0,0,0-.06-1.18,31.81,31.81,0,0,1-8.21,4.47,3.56,3.56,0,0,1-.53.15,0.72,0.72,0,0,1-.44-0.48A4.51,4.51,0,0,0,90.2,23.1ZM106.39,7.41l2.91,0a0.29,0.29,0,0,1,.2,0,0.4,0.4,0,0,1,0,.2l0,1.05v0.9l0,2.35a0.29,0.29,0,0,1,0,.2,0.37,0.37,0,0,1-.19,0h-1.8a0.31,0.31,0,0,1-.21,0,0.37,0.37,0,0,1,0-.19V9.33h-14v2.6a0.29,0.29,0,0,1,0,.2,0.4,0.4,0,0,1-.2,0h-1.8a0.29,0.29,0,0,1-.2,0,0.37,0.37,0,0,1,0-.19l0-2.35V8.84l0-1.22a0.31,0.31,0,0,1,0-.21,0.37,0.37,0,0,1,.19,0l2.91,0h4.81v0a8.78,8.78,0,0,0-.15-1.87q1.23,0,2.37.13c0.22,0,.33.09,0.33,0.19a1.69,1.69,0,0,1-.14.44,3.79,3.79,0,0,0-.11,1.11v0h5.15Z"/><path d="M113.31,22.46a12.68,12.68,0,0,0,3.61-2.76A11.65,11.65,0,0,0,119,16.61H116.6l-2.27,0a0.37,0.37,0,0,1-.23,0,0.37,0.37,0,0,1,0-.19V14.83a0.29,0.29,0,0,1,0-.2,0.43,0.43,0,0,1,.21,0l2.27,0h3a1.66,1.66,0,0,0,.51-0.09,0.83,0.83,0,0,1,.31-0.06,1.75,1.75,0,0,1,.87.55A1.86,1.86,0,0,1,122,16a0.51,0.51,0,0,1-.29.46,1.65,1.65,0,0,0-.5.74,17,17,0,0,1-2.6,4,15.85,15.85,0,0,1-3.14,2.76,1.48,1.48,0,0,1-.5.26,1.14,1.14,0,0,1-.48-0.48A5.55,5.55,0,0,0,113.31,22.46ZM134,22.09a5.85,5.85,0,0,0-1.17,1.58,0.78,0.78,0,0,1-.42.48,1.17,1.17,0,0,1-.51-0.27,17.45,17.45,0,0,1-7.14-9q0,1,.07,2.88,0.12,3.77.12,5.44a2.07,2.07,0,0,1-.82,1.91,7,7,0,0,1-3.09.49h-0.26a0.44,0.44,0,0,1-.4-0.14,2.1,2.1,0,0,1-.16-0.53,5.8,5.8,0,0,0-.71-1.68,12.62,12.62,0,0,0,1.53.1h0.46q1.08,0,1.07-.66V12.33H119.9l-2.2,0a0.29,0.29,0,0,1-.21,0,0.37,0.37,0,0,1,0-.19V10.53a0.29,0.29,0,0,1,0-.2,0.36,0.36,0,0,1,.19,0l2.2,0h2.58l2.2,0a0.2,0.2,0,0,1,.21.24v0.14a16.5,16.5,0,0,0,1.74,4.46,28,28,0,0,0,3.08-3.24,4.8,4.8,0,0,0,.68-1.08A17.77,17.77,0,0,1,132.24,12a0.73,0.73,0,0,1,.33.43,0.4,0.4,0,0,1-.33.35,5.87,5.87,0,0,0-1.18,1,37.47,37.47,0,0,1-3.33,3A16.58,16.58,0,0,0,134,22.09ZM121.05,5.59A19.28,19.28,0,0,1,126.77,8a0.26,0.26,0,0,1,.13.17,0.8,0.8,0,0,1-.11.25l-0.85,1.36a0.49,0.49,0,0,1-.27.26,0.41,0.41,0,0,1-.19-0.09,18.36,18.36,0,0,0-5.64-2.59,0.23,0.23,0,0,1-.19-0.14A0.66,0.66,0,0,1,119.77,7l0.82-1.21a0.4,0.4,0,0,1,.3-0.21Z"/><path d="M136.6,23.54a13.55,13.55,0,0,0,.85-4.07c0-.42,0-0.72,0-0.9V18.12q1.18,0.17,1.64.29a0.35,0.35,0,0,1,.33.26,0.68,0.68,0,0,1-.11.33,3,3,0,0,0-.09.77,18.61,18.61,0,0,1-.79,4.09,0.77,0.77,0,0,1-.31.5,1.22,1.22,0,0,1-.48-0.27A5.39,5.39,0,0,0,136.6,23.54Zm6.62-10.67a0.83,0.83,0,0,1,.24-0.06,0.23,0.23,0,0,1,.18.17,27.55,27.55,0,0,1,1.1,3.82,0.57,0.57,0,0,1,0,.13,0.29,0.29,0,0,1-.26.23l-0.92.35a0.74,0.74,0,0,1-.22.05,0.22,0.22,0,0,1-.19-0.23c-0.08-.43-0.15-0.77-0.23-1l-1,.16v6.18l0,2.88a0.27,0.27,0,0,1-.05.21,0.41,0.41,0,0,1-.21,0h-1.63a0.29,0.29,0,0,1-.2,0,0.4,0.4,0,0,1,0-.2l0-2.88V16.74l-1.41.13a2.21,2.21,0,0,0-.84.2,0.71,0.71,0,0,1-.36.11q-0.17,0-.24-0.35a17.17,17.17,0,0,1-.33-1.85h0.52l1.1,0q0.62-.82,1.29-1.8a25.22,25.22,0,0,0-2.66-3,0.29,0.29,0,0,1-.11-0.17A0.69,0.69,0,0,1,137,9.68l0.81-1.11A0.28,0.28,0,0,1,138,8.45a0.36,0.36,0,0,1,.19.13L138.6,9a17.44,17.44,0,0,0,1.19-2.29,10.52,10.52,0,0,0,.44-1.25,15.56,15.56,0,0,1,1.75.74,0.43,0.43,0,0,1,.29.35,0.34,0.34,0,0,1-.19.29,1.56,1.56,0,0,0-.4.53q-0.86,1.64-1.76,3,0.39,0.42.79,0.92,0.69-1.14,1.25-2.23a8.55,8.55,0,0,0,.59-1.34,16,16,0,0,1,1.76.85,0.44,0.44,0,0,1,.27.33,0.37,0.37,0,0,1-.25.33,3.51,3.51,0,0,0-.63.86,55.61,55.61,0,0,1-3.15,4.66l1.93-.19q-0.11-.35-0.37-1.06a0.66,0.66,0,0,1-.05-0.18,0.31,0.31,0,0,1,.25-0.19Zm0.31,5.1,0.19,0a0.24,0.24,0,0,1,.16.21,27.58,27.58,0,0,1,.75,3.78V22a0.36,0.36,0,0,1-.31.29l-0.92.33a0.74,0.74,0,0,1-.24.05c-0.09,0-.15-0.09-0.16-0.27a29,29,0,0,0-.64-3.79,0.66,0.66,0,0,1,0-.15,0.32,0.32,0,0,1,.29-0.21Zm13.69,6.2a6.42,6.42,0,0,0-.84,1.21,0.79,0.79,0,0,1-.46.46l-0.23,0-0.3-.09a12,12,0,0,1-3.86-1.9,0.26,0.26,0,0,1-.13-0.17,0.46,0.46,0,0,1,.2-0.24l1-.73h-4.4q0.79,0.45,1.17.73a0.46,0.46,0,0,1,.24.3,0.32,0.32,0,0,1-.29.27l-0.68.38a13.8,13.8,0,0,1-3.34,1.41,2.68,2.68,0,0,1-.52.11,0.89,0.89,0,0,1-.52-0.46,7.58,7.58,0,0,0-.92-1.07,13.87,13.87,0,0,0,3.87-1.24,3.54,3.54,0,0,0,.57-0.42l-1.68,0h-0.52a0.26,0.26,0,0,1-.21-0.05,0.43,0.43,0,0,1,0-.21l0-1.82V18.21l0-1.84a0.31,0.31,0,0,1,0-.21,0.41,0.41,0,0,1,.21,0l2.75,0h4.46l2.78,0a0.29,0.29,0,0,1,.2,0,0.4,0.4,0,0,1,0,.2l0,1.84v2.43l0,1.82a0.41,0.41,0,0,1,0,.23,0.29,0.29,0,0,1-.2,0l-2.45,0A11.78,11.78,0,0,0,157.22,24.17ZM148.11,10.5l-2.75,0a0.29,0.29,0,0,1-.2,0,0.37,0.37,0,0,1,0-.19v-1a0.29,0.29,0,0,1,0-.2,0.37,0.37,0,0,1,.19,0l2.75,0h1.21V8.36h-1.91l-3,0a0.34,0.34,0,0,1-.22,0,0.37,0.37,0,0,1,0-.19V7.06a0.29,0.29,0,0,1,0-.2,0.44,0.44,0,0,1,.21,0l3,0h1.91a7.78,7.78,0,0,0-.14-1.36q0.91,0,2.14.13c0.24,0,.35.11,0.35,0.25a0.86,0.86,0,0,1-.13.38,1.06,1.06,0,0,0-.14.61h2.51l2.94,0a0.35,0.35,0,0,1,.21,0,0.37,0.37,0,0,1,0,.19V8.17a0.29,0.29,0,0,1,0,.2,0.4,0.4,0,0,1-.2,0l-2.94,0h-2.51V9.13H153l2.77,0a0.29,0.29,0,0,1,.2,0,0.37,0.37,0,0,1,0,.19v1a0.3,0.3,0,0,1,0,.2,0.37,0.37,0,0,1-.19,0l-2.77,0h-4.87Zm5.21,0.7,2.92,0a0.26,0.26,0,0,1,.21.05,0.44,0.44,0,0,1,0,.21l0,1.28V14l0,1.3a0.35,0.35,0,0,1,0,.21,0.36,0.36,0,0,1-.21,0l-2.92,0h-5.43l-2.92,0a0.4,0.4,0,0,1-.24,0,0.4,0.4,0,0,1,0-.2l0-1.3V12.7l0-1.28a0.39,0.39,0,0,1,0-.24,0.5,0.5,0,0,1,.22,0l2.92,0h5.43Zm-6.79,3.06h1.14a0.46,0.46,0,0,1-.21-0.27,2.67,2.67,0,0,0-.69-0.78,2.67,2.67,0,0,0,1.61-.77h-1.85v1.83Zm0.78,3.15V18h6.48V17.4h-6.48Zm0,2.31h6.48V19.07h-6.48v0.64Zm6.48,1.71V20.77h-6.48v0.66h6.48Zm0.85-7.17V13.82l-1.1,0a16.57,16.57,0,0,1-1.8-.06,0.88,0.88,0,0,1-.6-0.26,1,1,0,0,1-.15-0.6V12.43h-1a2.86,2.86,0,0,1-2.2,1.83h6.84Zm0-1.83h-2.06V12.7a0.31,0.31,0,0,0,.36.28,5.09,5.09,0,0,0,.57,0l1.14,0V12.43Z"/><path d="M168.17,16.57a3.26,3.26,0,0,0,2.14-3.35l0-.77a0.29,0.29,0,0,1,0-.2,0.36,0.36,0,0,1,.19,0l1.83,0H175a14.63,14.63,0,0,1-4.64-3.72,15,15,0,0,1-5,3.78h1l1.55,0a0.29,0.29,0,0,1,.21,0,0.4,0.4,0,0,1,0,.2l0,1.6v1.38l0,1.6a0.31,0.31,0,0,1,0,.21,0.37,0.37,0,0,1-.19,0l-1.55,0h-2.62q-0.11.86-.26,1.64h2.75l1.82,0a0.24,0.24,0,0,1,.27.27q0,0.09-.13,1.39a11.55,11.55,0,0,1-.69,3.89q-0.64,1.18-2.88,1.18-0.75,0-1.1,0a0.66,0.66,0,0,1-.43-0.14,1.57,1.57,0,0,1-.16-0.52,9.56,9.56,0,0,0-.46-1.45,17.28,17.28,0,0,0,2,.11,1.42,1.42,0,0,0,1.1-.33,7,7,0,0,0,.42-2.61h-2.92l-0.13.48a0.25,0.25,0,0,1-.25.21,6.86,6.86,0,0,1-.88-0.13,1.68,1.68,0,0,1-1-.33,0.83,0.83,0,0,1,0-.13,21.39,21.39,0,0,0,.82-3.82,7.5,7.5,0,0,0,.06-1,0.58,0.58,0,0,1,.05-0.32,0.31,0.31,0,0,1,.21-0.05l1.45,0h2.48V14h-1.26l-1.78,0a0.29,0.29,0,0,1-.2,0,0.37,0.37,0,0,1,0-.19V13.53l-0.79.31a3.55,3.55,0,0,1-.53.15,0.65,0.65,0,0,1-.42-0.44,5.76,5.76,0,0,0-1-1.34A32.34,32.34,0,0,0,163.57,11a22.12,22.12,0,0,0-1.8-1.55,0.26,0.26,0,0,1-.13-0.16A0.46,0.46,0,0,1,161.83,9l1-.76A0.57,0.57,0,0,1,163,8.12a0.38,0.38,0,0,1,.19.11,18.32,18.32,0,0,1,2.2,1.8A13,13,0,0,0,168,8.13H166l-2.31,0a0.29,0.29,0,0,1-.2,0,0.37,0.37,0,0,1,0-.19V6.46a0.29,0.29,0,0,1,0-.2,0.37,0.37,0,0,1,.19,0l2.31,0h2.66l2.27,0a0.38,0.38,0,0,1,.36.21,5.34,5.34,0,0,0,.65,1q0.45,0.52.84,0.88A11.09,11.09,0,0,0,174,7.08a5,5,0,0,0,.61-0.9,9.49,9.49,0,0,1,1.64.95,0.52,0.52,0,0,1,.27.38,0.42,0.42,0,0,1-.29.31,3.15,3.15,0,0,0-.74.59q-0.47.47-1.21,1.1,0.79,0.52,1.32.79A14,14,0,0,0,177,8.91,6,6,0,0,0,177.64,8q1.22,0.63,1.62.9a0.54,0.54,0,0,1,.27.4,0.41,0.41,0,0,1-.31.31,2.39,2.39,0,0,0-.76.59q-0.46.45-1,.92a26.27,26.27,0,0,0,3,.92,5,5,0,0,0-.92,1.36,0.88,0.88,0,0,1-.44.57,1.6,1.6,0,0,1-.53-0.15q-1.13-.41-2.35-0.93V14.7a1.11,1.11,0,0,0,.14.75,1.57,1.57,0,0,0,.87.15,0.84,0.84,0,0,0,.68-0.19,2.85,2.85,0,0,0,.16-1.11,5.52,5.52,0,0,0,1.32.46,1.34,1.34,0,0,1,.39.14,0.28,0.28,0,0,1,.09.24s0,0.13,0,.24a2.23,2.23,0,0,1-.71,1.65,3.83,3.83,0,0,1-2.06.38,5.74,5.74,0,0,1-2.26-.25,1.5,1.5,0,0,1-.57-1.41V14h-2.08a4.29,4.29,0,0,1-.58,2.13,4.53,4.53,0,0,1-1.43,1.56,1.19,1.19,0,0,1-.55.24,0.66,0.66,0,0,1-.44-0.38A3.82,3.82,0,0,0,168.17,16.57Zm12,7.22a6.25,6.25,0,0,0-.82,1.36,0.76,0.76,0,0,1-.48.57,2.88,2.88,0,0,1-.48-0.06,14.74,14.74,0,0,1-4.53-1.87,16.81,16.81,0,0,1-4.44,1.85,2.92,2.92,0,0,1-.46.06,0.62,0.62,0,0,1-.4-0.46,4.33,4.33,0,0,0-.84-1.28,18,18,0,0,0,4.38-1.45,11.47,11.47,0,0,1-2.27-2.66l-0.67,0a0.2,0.2,0,0,1-.21-0.24V18.21a0.2,0.2,0,0,1,.21-0.24l2.58,0h4.42a1.05,1.05,0,0,0,.49-0.09,0.68,0.68,0,0,1,.3-0.09,2,2,0,0,1,.86.57,1.65,1.65,0,0,1,.71.88,0.47,0.47,0,0,1-.25.42,2.51,2.51,0,0,0-.63.66,14.12,14.12,0,0,1-2,2.16A15.67,15.67,0,0,0,180.18,23.79Zm-4.6-4h-3.47a8.23,8.23,0,0,0,1.69,1.65A10.91,10.91,0,0,0,175.58,19.82Z"/><path d="M187.26,19.42a16,16,0,0,1-2,5.61,0.91,0.91,0,0,1-.38.44,1.13,1.13,0,0,1-.38-0.38,5.89,5.89,0,0,0-1.43-1.29,11.84,11.84,0,0,0,2-5.17,48.09,48.09,0,0,0,.42-7.35l0-4.64a0.39,0.39,0,0,1,0-.24,0.4,0.4,0,0,1,.2,0l3,0h10.16l3,0a0.26,0.26,0,0,1,.21.05,0.43,0.43,0,0,1,0,.21l-0.05,1.56V9.85l0.05,1.56a0.31,0.31,0,0,1,0,.21,0.4,0.4,0,0,1-.2,0l-3,0H187.74v1.26A39,39,0,0,1,187.26,19.42Zm3.72-2h0.46V15.62l-2.64,0a0.25,0.25,0,0,1-.2-0.05,0.4,0.4,0,0,1,0-.2V14a0.29,0.29,0,0,1,0-.2,0.37,0.37,0,0,1,.19,0l2.64,0a10.39,10.39,0,0,0-.13-1.8q1,0,2.06.15,0.38,0,.38.27a0.86,0.86,0,0,1-.13.38,2.75,2.75,0,0,0-.13,1h3a9,9,0,0,0-.13-1.8q1,0,2.06.15c0.25,0,.38.11,0.38,0.25a0.87,0.87,0,0,1-.13.4,2.5,2.5,0,0,0-.13,1l2.75,0a0.29,0.29,0,0,1,.2,0,0.37,0.37,0,0,1,0,.19v1.42a0.37,0.37,0,0,1,0,.23,0.37,0.37,0,0,1-.19,0l-2.75,0v1.76h1.3l3,0a0.34,0.34,0,0,1,.21,0,0.37,0.37,0,0,1,0,.19v1.48a0.32,0.32,0,0,1,0,.2,0.36,0.36,0,0,1-.21,0l-2.73,0a7.91,7.91,0,0,1,1.26.77,0.4,0.4,0,0,1,.21.3,0.34,0.34,0,0,1-.24.27,2.44,2.44,0,0,0-.64.48q-0.67.61-1.41,1.17a13.81,13.81,0,0,0,4.32,1.31,4.74,4.74,0,0,0-.88,1.43,3.56,3.56,0,0,1-.23.52,0.29,0.29,0,0,1-.25.12,2.72,2.72,0,0,1-.47-0.09A11.49,11.49,0,0,1,194,19.25h-1.83V22.9q2.17-.35,3.65-0.71a10.76,10.76,0,0,0-.19,1.28,1.23,1.23,0,0,1-.17.68,1.53,1.53,0,0,1-.56.18q-2.83.63-5.58,1.1a2.09,2.09,0,0,0-.7.18,1.06,1.06,0,0,1-.4.13,0.34,0.34,0,0,1-.31-0.3l-0.46-2.05a20.62,20.62,0,0,0,2.12-.13l0.46,0v-4l-1.53,0h-0.47a0.2,0.2,0,0,1-.23-0.24V17.58a0.2,0.2,0,0,1,.23-0.24Zm8.84-7.57V8.32H187.74V9.81h12.07Zm-6.33,7.57h3V15.62h-3v1.76Zm4.26,3.78a10.49,10.49,0,0,0,1.41-1.3,7.47,7.47,0,0,0,.48-0.61h-3.41A7.46,7.46,0,0,0,197.75,21.16Z"/><path d="M210.43,21.12l-2.86,0a0.2,0.2,0,0,1-.24-0.21V19.47a0.29,0.29,0,0,1,0-.2,0.37,0.37,0,0,1,.19,0l2.86,0h4.93l0.06-.38c0-.37.05-0.63,0.05-0.78a5.13,5.13,0,0,0-.05-0.71q0.91,0.05,2.09.21a10.92,10.92,0,0,0-1.65-1.91,0.3,0.3,0,0,1-.11-0.16,0.4,0.4,0,0,1,.21-0.21l1-.59-1.74,0H214.7a0.39,0.39,0,0,1-.24,0,0.28,0.28,0,0,1,0-.17V13.21a0.3,0.3,0,0,1,.05-0.23,0.43,0.43,0,0,1,.21,0l2.92,0h4.77V12.75a8,8,0,0,0-.11-1.45q1.19,0.07,1.91.18,0.4,0.06.4,0.24a0.75,0.75,0,0,1-.09.29,2.06,2.06,0,0,0-.11.82V13l2.06,0a0.23,0.23,0,0,1,.19.05,0.4,0.4,0,0,1,0,.2v1.35a0.19,0.19,0,0,1-.23.21H226.2l-1.79,0V14.8l0,1.13a1.79,1.79,0,0,1-.53,1.49,3.57,3.57,0,0,1-2,.44h-0.21l0.59,0.4a0.23,0.23,0,0,1,.12.17,0.53,0.53,0,0,1-.16.27l-0.5.57h1.54l2.87,0a0.19,0.19,0,0,1,.26.24v1.48a0.25,0.25,0,0,1,0,.18,0.44,0.44,0,0,1-.21,0l-2.87,0h-4.6a8.35,8.35,0,0,0,3.62,1.77,27.6,27.6,0,0,0,4.63.69,7.46,7.46,0,0,0-.76,1.49,2,2,0,0,1-.26.5,0.41,0.41,0,0,1-.3.1l-0.39,0q-6-.78-8.56-3.79-2.1,3-8.25,3.82l-0.42,0a0.35,0.35,0,0,1-.31-0.14,3.53,3.53,0,0,1-.21-0.45,4.8,4.8,0,0,0-.82-1.45q6.07-.42,7.9-2.56h-4.07Zm1.24-15.51q0.78,0,2.07.15c0.22,0,.33.11,0.33,0.25a0.81,0.81,0,0,1-.14.42,4.15,4.15,0,0,0-.11,1.3V15.2l0,3a0.29,0.29,0,0,1-.05.23,0.32,0.32,0,0,1-.2,0H212a0.3,0.3,0,0,1-.23-0.05,0.43,0.43,0,0,1,0-.21l0-3V13.9h-1.39a7.35,7.35,0,0,1-1.39,4.37,1.15,1.15,0,0,1-.52.44,1.1,1.1,0,0,1-.43-0.31,5.55,5.55,0,0,0-1.19-.83,4.66,4.66,0,0,0,1.58-3.67l-0.78,0h-0.27a0.29,0.29,0,0,1-.2,0,0.4,0.4,0,0,1,0-.2V12.4a0.29,0.29,0,0,1,0-.2,0.37,0.37,0,0,1,.19,0l2,0h2.35V10.78h-2l-1.51.05a0.31,0.31,0,0,1-.21,0,0.4,0.4,0,0,1,0-.2l0.05-1.51V8.29A12.3,12.3,0,0,0,208,6.43q1.39,0,2,.11a0.25,0.25,0,0,1,.29.23,0.76,0.76,0,0,1-.09.34,3.87,3.87,0,0,0-.11,1.17V9.11h1.74V7.79A12.06,12.06,0,0,0,211.66,5.61Zm7.33,0L220.79,6a0.3,0.3,0,0,1,.31.26,0.33,0.33,0,0,1-.27.29,6.36,6.36,0,0,0-.61.42h3.41a1.07,1.07,0,0,0,.44-0.06l0.29-.06a2.21,2.21,0,0,1,.88.5,1.7,1.7,0,0,1,.68.79,0.47,0.47,0,0,1-.27.38q-0.1.05-.76,0.61a14.48,14.48,0,0,1-4.11,2.43,26.69,26.69,0,0,1-4.84,1.25,2.23,2.23,0,0,1-.37,0,0.73,0.73,0,0,1-.54-0.46,4,4,0,0,0-.78-1q1.49-.15,2.57-0.35a9,9,0,0,0-.9-0.84,0.26,0.26,0,0,1-.13-0.17A0.41,0.41,0,0,1,216,9.72l0.66-.3A0.77,0.77,0,0,1,217,9.32a0.39,0.39,0,0,1,.21.1,15.74,15.74,0,0,1,1.3,1.17l1-.28L218.22,9.2A0.26,0.26,0,0,1,218.09,9a0.36,0.36,0,0,1,.23-0.23L219,8.45a0.81,0.81,0,0,1,.27-0.11,0.36,0.36,0,0,1,.19.09,15,15,0,0,1,1.51,1.28,9.19,9.19,0,0,0,2.2-1.47H218.4a15.26,15.26,0,0,1-2.77,1.28,1.67,1.67,0,0,1-.41.1,0.65,0.65,0,0,1-.41-0.39A3.31,3.31,0,0,0,214,8.27a11.33,11.33,0,0,0,4.2-1.87A2.94,2.94,0,0,0,219,5.59Zm1.39,11.55,0.73,0.4,0-.19a5.16,5.16,0,0,0-.44-1.26,11.49,11.49,0,0,0,1.25.09,0.52,0.52,0,0,0,.45-0.14,1.17,1.17,0,0,0,.08-0.52V14.74h-5a15.62,15.62,0,0,1,1.74,1.83,0.3,0.3,0,0,1,.1.17A0.41,0.41,0,0,1,219,17l-1.17.75a0.21,0.21,0,0,1,.14.19,1.67,1.67,0,0,1-.13.38,2.42,2.42,0,0,0-.18.77l0,0.19h3a11.21,11.21,0,0,0-1.45-.95,0.21,0.21,0,0,1-.14-0.16,0.37,0.37,0,0,1,.16-0.24l0.7-.68a0.44,0.44,0,0,1,.27-0.17A0.49,0.49,0,0,1,220.38,17.14Z"/></g></g><g id="National_Sustainable_Development_Awards_Ceremony" data-name="National Sustainable Development Awards Ceremony" class="cls-22"><g class="cls-22"><path class="cls-23" d="M68.79,40V30.69h1l4,7.32V30.69h1V40h-1l-4-7.32V40h-1Z"/></g><g class="cls-22"><path class="cls-21" d="M79.85,39.17a3.47,3.47,0,0,1-1,.74,2.38,2.38,0,0,1-1.05.25,1.85,1.85,0,0,1-1.38-.52,1.91,1.91,0,0,1-.51-1.4,2.16,2.16,0,0,1,.24-1,1.79,1.79,0,0,1,.66-0.7,3.45,3.45,0,0,1,1.27-.37,7,7,0,0,0,1.68-.4V35.42a1.47,1.47,0,0,0-.25-1A1.34,1.34,0,0,0,78.46,34a1.5,1.5,0,0,0-1,.27,1.77,1.77,0,0,0-.48,1l-0.92-.15a2.56,2.56,0,0,1,.8-1.58,2.63,2.63,0,0,1,1.72-.5,2.46,2.46,0,0,1,1.36.33,1.4,1.4,0,0,1,.63.81,5.76,5.76,0,0,1,.13,1.41v1.52a19.5,19.5,0,0,0,.06,2A3,3,0,0,0,81,40H80A2.84,2.84,0,0,1,79.85,39.17Zm-0.08-2.55a6,6,0,0,1-1.53.43,2.86,2.86,0,0,0-.83.23,0.91,0.91,0,0,0-.36.37,1.12,1.12,0,0,0-.13.55,1,1,0,0,0,.3.77,1.14,1.14,0,0,0,.83.29A1.66,1.66,0,0,0,79,39a1.63,1.63,0,0,0,.61-0.7,3.1,3.1,0,0,0,.2-1.27V36.62Z"/><path class="cls-21" d="M84.14,39l0.13,1a2.8,2.8,0,0,1-.7.1,1.43,1.43,0,0,1-.79-0.19,1,1,0,0,1-.41-0.53A5.17,5.17,0,0,1,82.26,38V34.15H81.57V33.26h0.69V31.59l0.93-.69v2.35h0.95v0.89H83.19v3.94a1.86,1.86,0,0,0,.08.7,0.46,0.46,0,0,0,.45.23A2.53,2.53,0,0,0,84.14,39Z"/><path class="cls-21" d="M84.89,32V30.69h0.93V32H84.89Zm0,8V33.26h0.93V40H84.89Z"/><path class="cls-21" d="M86.77,36.63A4.06,4.06,0,0,1,87.5,34a2.37,2.37,0,0,1,3.7,0A3.9,3.9,0,0,1,92,36.56a4.2,4.2,0,0,1-.73,2.7,2.38,2.38,0,0,1-3.71,0A4,4,0,0,1,86.77,36.63Zm1,0a3.26,3.26,0,0,0,.48,1.95,1.43,1.43,0,0,0,1.18.64,1.38,1.38,0,0,0,1.13-.65A3.28,3.28,0,0,0,91,36.63a3.24,3.24,0,0,0-.48-1.94A1.43,1.43,0,0,0,89.33,34a1.38,1.38,0,0,0-1.14.64A3.28,3.28,0,0,0,87.73,36.63Z"/><path class="cls-21" d="M92.92,40V33.26h0.84v1a2.19,2.19,0,0,1,.74-0.83,1.87,1.87,0,0,1,1-.27,1.93,1.93,0,0,1,.82.17,1.68,1.68,0,0,1,.61.46,1.86,1.86,0,0,1,.35.73,6.12,6.12,0,0,1,.11,1.38V40H96.48V35.9a3.39,3.39,0,0,0-.13-1.09,1.08,1.08,0,0,0-.4-0.53,1.07,1.07,0,0,0-.62-0.19,1.3,1.3,0,0,0-1.07.5,2.82,2.82,0,0,0-.4,1.72V40H92.92Z"/><path class="cls-21" d="M102.32,39.17a3.47,3.47,0,0,1-1,.74,2.38,2.38,0,0,1-1.05.25,1.85,1.85,0,0,1-1.38-.52,1.91,1.91,0,0,1-.51-1.4,2.16,2.16,0,0,1,.24-1,1.79,1.79,0,0,1,.66-0.7,3.45,3.45,0,0,1,1.27-.37,7,7,0,0,0,1.68-.4V35.42a1.47,1.47,0,0,0-.25-1,1.34,1.34,0,0,0-1.07-.41,1.5,1.5,0,0,0-1,.27,1.77,1.77,0,0,0-.48,1l-0.92-.15a2.56,2.56,0,0,1,.8-1.58,2.63,2.63,0,0,1,1.72-.5,2.46,2.46,0,0,1,1.36.33,1.4,1.4,0,0,1,.63.81,5.76,5.76,0,0,1,.13,1.41v1.52a19.5,19.5,0,0,0,.06,2,3,3,0,0,0,.24.81h-1A2.84,2.84,0,0,1,102.32,39.17Zm-0.08-2.55a6,6,0,0,1-1.53.43,2.86,2.86,0,0,0-.83.23,0.91,0.91,0,0,0-.36.37,1.12,1.12,0,0,0-.13.55,1,1,0,0,0,.3.77,1.14,1.14,0,0,0,.83.29,1.66,1.66,0,0,0,.91-0.26,1.63,1.63,0,0,0,.61-0.7,3.1,3.1,0,0,0,.2-1.27V36.62Z"/><path class="cls-21" d="M104.49,40V30.69h0.93V40h-0.93Z"/></g><g class="cls-22"><path class="cls-23" d="M109.38,37l1-.1a2.77,2.77,0,0,0,.35,1.2,1.94,1.94,0,0,0,.77.69,2.41,2.41,0,0,0,1.13.26,2,2,0,0,0,1.4-.44,1.45,1.45,0,0,0,.5-1.14,1.39,1.39,0,0,0-.18-0.72,1.36,1.36,0,0,0-.55-0.5,10.21,10.21,0,0,0-1.58-.56,5.6,5.6,0,0,1-1.54-.64,2.25,2.25,0,0,1-.71-0.82,2.44,2.44,0,0,1-.25-1.13,2.48,2.48,0,0,1,.73-1.85,2.69,2.69,0,0,1,2-.72,3.16,3.16,0,0,1,1.49.34,2.4,2.4,0,0,1,1,1,3.19,3.19,0,0,1,.38,1.48l-1,.09a2,2,0,0,0-.54-1.35,1.84,1.84,0,0,0-1.31-.44,2,2,0,0,0-1.31.38,1.24,1.24,0,0,0-.45,1,1.15,1.15,0,0,0,.33.88,4,4,0,0,0,1.48.63A9.68,9.68,0,0,1,114,35a2.57,2.57,0,0,1,1.05.94,2.6,2.6,0,0,1,.36,1.39,2.88,2.88,0,0,1-.37,1.46,2.52,2.52,0,0,1-1,1,3.27,3.27,0,0,1-1.55.34,3,3,0,0,1-2.26-.85A3.24,3.24,0,0,1,109.38,37Z"/></g><g class="cls-22"><path class="cls-21" d="M120.19,40V39a2.42,2.42,0,0,1-.76.86,1.91,1.91,0,0,1-2.11-.07,1.68,1.68,0,0,1-.62-0.89,5.49,5.49,0,0,1-.16-1.47V33.26h0.93V37a5.93,5.93,0,0,0,.1,1.39A1.07,1.07,0,0,0,118,39a1,1,0,0,0,.64.21,1.34,1.34,0,0,0,1.1-.55,3,3,0,0,0,.37-1.75V33.26H121V40h-0.84Z"/><path class="cls-21" d="M122,38l0.93-.18a1.67,1.67,0,0,0,.45,1.06,1.58,1.58,0,0,0,1.92,0,1,1,0,0,0,.33-0.76,0.74,0.74,0,0,0-.29-0.62,3.58,3.58,0,0,0-1-.38,7,7,0,0,1-1.46-.57,1.61,1.61,0,0,1-.57-0.63,1.93,1.93,0,0,1-.2-0.89,1.87,1.87,0,0,1,.55-1.4,2.09,2.09,0,0,1,1.53-.54,2.5,2.5,0,0,1,1.08.22,1.72,1.72,0,0,1,.71.6,2.59,2.59,0,0,1,.34,1.07l-0.91.15a1.1,1.1,0,0,0-1.2-1.1,1.42,1.42,0,0,0-.91.24,0.77,0.77,0,0,0-.3.62,0.7,0.7,0,0,0,.29.59,5.06,5.06,0,0,0,1,.4,7.64,7.64,0,0,1,1.5.59,1.49,1.49,0,0,1,.53.6,2,2,0,0,1,.19.9,2.09,2.09,0,0,1-.61,1.56,2.29,2.29,0,0,1-1.67.6A2.18,2.18,0,0,1,122,38Z"/><path class="cls-21" d="M129.66,39l0.13,1a2.79,2.79,0,0,1-.7.1,1.43,1.43,0,0,1-.79-0.19,1,1,0,0,1-.41-0.53,5.14,5.14,0,0,1-.11-1.34V34.15h-0.69V33.26h0.69V31.59l0.93-.69v2.35h0.95v0.89h-0.95v3.94a1.87,1.87,0,0,0,.08.7,0.46,0.46,0,0,0,.45.23A2.52,2.52,0,0,0,129.66,39Z"/><path class="cls-21" d="M134,39.17a3.48,3.48,0,0,1-1,.74,2.38,2.38,0,0,1-1.05.25,1.85,1.85,0,0,1-1.38-.52,1.91,1.91,0,0,1-.51-1.4,2.16,2.16,0,0,1,.24-1,1.79,1.79,0,0,1,.66-0.7,3.44,3.44,0,0,1,1.27-.37,7,7,0,0,0,1.68-.4V35.42a1.47,1.47,0,0,0-.25-1,1.34,1.34,0,0,0-1.07-.41,1.5,1.5,0,0,0-1,.27,1.77,1.77,0,0,0-.48,1l-0.92-.15a2.57,2.57,0,0,1,.8-1.58,2.63,2.63,0,0,1,1.72-.5,2.46,2.46,0,0,1,1.37.33,1.41,1.41,0,0,1,.63.81,5.77,5.77,0,0,1,.13,1.41v1.52a19.44,19.44,0,0,0,.06,2,3,3,0,0,0,.24.81h-1A2.81,2.81,0,0,1,134,39.17Zm-0.08-2.55a6,6,0,0,1-1.53.43,2.87,2.87,0,0,0-.83.23,0.91,0.91,0,0,0-.36.37,1.12,1.12,0,0,0-.13.55,1,1,0,0,0,.3.77,1.14,1.14,0,0,0,.83.29,1.66,1.66,0,0,0,.91-0.26,1.63,1.63,0,0,0,.61-0.7,3.11,3.11,0,0,0,.2-1.27V36.62Z"/><path class="cls-21" d="M136.21,32V30.69h0.93V32h-0.93Zm0,8V33.26h0.93V40h-0.93Z"/><path class="cls-21" d="M138.45,40V33.26h0.84v1a2.19,2.19,0,0,1,.75-0.83,1.87,1.87,0,0,1,1-.27,1.93,1.93,0,0,1,.82.17,1.69,1.69,0,0,1,.61.46,1.85,1.85,0,0,1,.34.73,6.12,6.12,0,0,1,.11,1.38V40H142V35.9a3.4,3.4,0,0,0-.13-1.09,1.08,1.08,0,0,0-.4-0.53,1.07,1.07,0,0,0-.62-0.19,1.3,1.3,0,0,0-1.07.5,2.82,2.82,0,0,0-.4,1.72V40h-0.93Z"/><path class="cls-21" d="M147.84,39.17a3.45,3.45,0,0,1-1,.74,2.37,2.37,0,0,1-1.05.25,1.85,1.85,0,0,1-1.38-.52,1.91,1.91,0,0,1-.51-1.4,2.17,2.17,0,0,1,.24-1,1.79,1.79,0,0,1,.66-0.7,3.45,3.45,0,0,1,1.27-.37,7,7,0,0,0,1.68-.4V35.42a1.47,1.47,0,0,0-.25-1,1.34,1.34,0,0,0-1.07-.41,1.49,1.49,0,0,0-1,.27,1.77,1.77,0,0,0-.48,1l-0.92-.15a2.56,2.56,0,0,1,.8-1.58,2.63,2.63,0,0,1,1.72-.5,2.46,2.46,0,0,1,1.36.33,1.4,1.4,0,0,1,.63.81,5.76,5.76,0,0,1,.13,1.41v1.52a19.56,19.56,0,0,0,.06,2A3.05,3.05,0,0,0,149,40h-1A2.87,2.87,0,0,1,147.84,39.17Zm-0.08-2.55a6,6,0,0,1-1.53.43,2.86,2.86,0,0,0-.83.23,0.91,0.91,0,0,0-.37.37,1.12,1.12,0,0,0-.13.55,1,1,0,0,0,.3.77,1.14,1.14,0,0,0,.83.29A1.66,1.66,0,0,0,147,39a1.62,1.62,0,0,0,.61-0.7,3.09,3.09,0,0,0,.2-1.27V36.62Z"/><path class="cls-21" d="M150.9,40H150V30.69H151V34a2.13,2.13,0,0,1,.68-0.68,1.6,1.6,0,0,1,.84-0.23,2,2,0,0,1,1.18.39,2.62,2.62,0,0,1,.85,1.17,5.11,5.11,0,0,1,.32,1.91,4.25,4.25,0,0,1-.72,2.64,2.09,2.09,0,0,1-1.68.93,1.56,1.56,0,0,1-.87-0.25,2.09,2.09,0,0,1-.66-0.75V40Zm0-3.42a4.84,4.84,0,0,0,.19,1.57,1.73,1.73,0,0,0,.54.79,1.23,1.23,0,0,0,.78.27,1.26,1.26,0,0,0,1-.65,3.43,3.43,0,0,0,.45-1.95,3.47,3.47,0,0,0-.43-1.95,1.18,1.18,0,0,0-2.1,0A3.27,3.27,0,0,0,150.88,36.58Z"/><path class="cls-21" d="M155.81,40V30.69h0.93V40h-0.93Z"/><path class="cls-21" d="M161.86,37.83l1,0.15a2.92,2.92,0,0,1-.87,1.63,2.3,2.3,0,0,1-1.56.55,2.34,2.34,0,0,1-1.9-.89,4,4,0,0,1-.73-2.57,4.18,4.18,0,0,1,.73-2.66,2.28,2.28,0,0,1,1.86-.92,2.2,2.2,0,0,1,1.79.9,4.11,4.11,0,0,1,.72,2.61v0.3h-4.13a2.91,2.91,0,0,0,.53,1.71,1.42,1.42,0,0,0,1.14.58A1.57,1.57,0,0,0,161.86,37.83ZM158.78,36h3.08a2.57,2.57,0,0,0-.37-1.31,1.36,1.36,0,0,0-2.22-.1A2.3,2.3,0,0,0,158.78,36Z"/></g><g class="cls-22"><path class="cls-23" d="M166.82,40V30.69h2.63a4.93,4.93,0,0,1,1.49.17,2.53,2.53,0,0,1,1.16.81,4.24,4.24,0,0,1,.76,1.49,7.34,7.34,0,0,1,.27,2.13,6.9,6.9,0,0,1-.46,2.68,3.27,3.27,0,0,1-1.19,1.56,3.51,3.51,0,0,1-1.9.46h-2.75Zm1-1.1h1.63a2.82,2.82,0,0,0,1.49-.32,2,2,0,0,0,.78-1,6.35,6.35,0,0,0,.36-2.27,5.29,5.29,0,0,0-.38-2.22,2.11,2.11,0,0,0-1-1.08,3.33,3.33,0,0,0-1.29-.18h-1.6V38.9Z"/></g><g class="cls-22"><path class="cls-21" d="M178.05,37.83L179,38a2.92,2.92,0,0,1-.87,1.63,2.3,2.3,0,0,1-1.56.55,2.34,2.34,0,0,1-1.9-.89,4,4,0,0,1-.73-2.57,4.18,4.18,0,0,1,.73-2.66,2.28,2.28,0,0,1,1.86-.92,2.2,2.2,0,0,1,1.79.9,4.11,4.11,0,0,1,.72,2.61v0.3h-4.13a2.91,2.91,0,0,0,.53,1.71,1.42,1.42,0,0,0,1.14.58A1.57,1.57,0,0,0,178.05,37.83ZM175,36h3.08a2.57,2.57,0,0,0-.37-1.31,1.36,1.36,0,0,0-2.22-.1A2.3,2.3,0,0,0,175,36Z"/><path class="cls-21" d="M181.62,40l-2.1-6.74h1l1.19,4q0.2,0.69.36,1.36,0.12-.53.34-1.28l1.23-4.11h1L182.49,40h-0.87Z"/><path class="cls-21" d="M189.05,37.83L190,38a2.92,2.92,0,0,1-.87,1.63,2.3,2.3,0,0,1-1.56.55,2.34,2.34,0,0,1-1.9-.89,4,4,0,0,1-.73-2.57,4.18,4.18,0,0,1,.73-2.66,2.28,2.28,0,0,1,1.86-.92,2.2,2.2,0,0,1,1.79.9,4.11,4.11,0,0,1,.72,2.61v0.3h-4.13a2.91,2.91,0,0,0,.53,1.71,1.42,1.42,0,0,0,1.14.58A1.57,1.57,0,0,0,189.05,37.83ZM186,36h3.08a2.57,2.57,0,0,0-.37-1.31,1.36,1.36,0,0,0-2.22-.1A2.3,2.3,0,0,0,186,36Z"/><path class="cls-21" d="M191,40V30.69H192V40H191Z"/><path class="cls-21" d="M193,36.63a4.06,4.06,0,0,1,.73-2.63,2.37,2.37,0,0,1,3.7,0,3.9,3.9,0,0,1,.74,2.56,4.2,4.2,0,0,1-.73,2.7,2.38,2.38,0,0,1-3.71,0A4,4,0,0,1,193,36.63Zm1,0a3.26,3.26,0,0,0,.48,1.95,1.43,1.43,0,0,0,1.18.64,1.38,1.38,0,0,0,1.13-.65,3.28,3.28,0,0,0,.47-1.94,3.24,3.24,0,0,0-.48-1.94,1.43,1.43,0,0,0-1.18-.64,1.38,1.38,0,0,0-1.14.64A3.29,3.29,0,0,0,193.92,36.63Z"/><path class="cls-21" d="M199.11,42.58V33.26H200v0.88a2.2,2.2,0,0,1,.7-0.79,1.64,1.64,0,0,1,.89-0.24,1.94,1.94,0,0,1,1.18.39,2.65,2.65,0,0,1,.85,1.18,5.08,5.08,0,0,1,.32,1.9,4.25,4.25,0,0,1-.72,2.65,2.1,2.1,0,0,1-1.69.93,1.55,1.55,0,0,1-.81-0.22A2,2,0,0,1,200,39.3v3.28h-0.93ZM200,36.67a3.38,3.38,0,0,0,.44,1.93,1.19,1.19,0,0,0,2.1,0,3.48,3.48,0,0,0,.45-2,3.49,3.49,0,0,0-.44-2,1.16,1.16,0,0,0-2.09,0A3.54,3.54,0,0,0,200,36.67Z"/><path class="cls-21" d="M204.92,40V33.26h0.84V34.2a2.14,2.14,0,0,1,.72-0.81,1.72,1.72,0,0,1,1-.28,1.6,1.6,0,0,1,1,.3,1.63,1.63,0,0,1,.57.88,2.56,2.56,0,0,1,.76-0.88,1.65,1.65,0,0,1,1-.29,1.56,1.56,0,0,1,1.25.54,2.64,2.64,0,0,1,.46,1.73V40h-0.93V35.75a3.47,3.47,0,0,0-.11-1,0.92,0.92,0,0,0-.34-0.47,0.9,0.9,0,0,0-.53-0.17,1.21,1.21,0,0,0-1,.48,2.41,2.41,0,0,0-.38,1.51V40H208.2V35.62a2,2,0,0,0-.26-1.18,0.84,0.84,0,0,0-.71-0.34,1.18,1.18,0,0,0-1,.52,3.44,3.44,0,0,0-.37,1.89V40h-0.93Z"/><path class="cls-21" d="M217.44,37.83l1,0.15a2.92,2.92,0,0,1-.87,1.63,2.3,2.3,0,0,1-1.56.55,2.34,2.34,0,0,1-1.9-.89,4,4,0,0,1-.73-2.57,4.18,4.18,0,0,1,.73-2.66,2.28,2.28,0,0,1,1.86-.92,2.2,2.2,0,0,1,1.79.9,4.11,4.11,0,0,1,.72,2.61v0.3H214.3a2.91,2.91,0,0,0,.53,1.71,1.42,1.42,0,0,0,1.14.58A1.57,1.57,0,0,0,217.44,37.83ZM214.36,36h3.08a2.57,2.57,0,0,0-.37-1.31,1.36,1.36,0,0,0-2.22-.1A2.3,2.3,0,0,0,214.36,36Z"/><path class="cls-21" d="M219.46,40V33.26h0.84v1a2.19,2.19,0,0,1,.75-0.83,1.87,1.87,0,0,1,1-.27,1.93,1.93,0,0,1,.82.17,1.69,1.69,0,0,1,.61.46,1.85,1.85,0,0,1,.34.73,6.12,6.12,0,0,1,.11,1.38V40H223V35.9a3.4,3.4,0,0,0-.13-1.09,1.08,1.08,0,0,0-.4-0.53,1.07,1.07,0,0,0-.62-0.19,1.3,1.3,0,0,0-1.07.5,2.82,2.82,0,0,0-.4,1.72V40h-0.93Z"/><path class="cls-21" d="M227.34,39l0.13,1a2.8,2.8,0,0,1-.7.1A1.43,1.43,0,0,1,226,39.9a1,1,0,0,1-.41-0.53,5.2,5.2,0,0,1-.11-1.34V34.15h-0.69V33.26h0.69V31.59l0.93-.69v2.35h0.95v0.89h-0.95v3.94a1.84,1.84,0,0,0,.08.7,0.46,0.46,0,0,0,.45.23A2.53,2.53,0,0,0,227.34,39Z"/></g><g class="cls-22"><path class="cls-23" d="M68,53l2.94-9.31H72L75.13,53H74l-0.89-2.82H69.88L69.05,53H68Zm2.19-3.82h2.6L72,46.6q-0.37-1.19-.54-1.93A13.59,13.59,0,0,1,71,46.45Z"/></g><g class="cls-22"><path class="cls-21" d="M76.69,53L75,46.26h1l0.88,3.89,0.33,1.45,0.29-1.39,0.88-3.95h1l0.82,3.91,0.28,1.29,0.32-1.3,0.94-3.9h0.91L80.85,53h-1L79,49l-0.21-1.15L77.67,53h-1Z"/><path class="cls-21" d="M86.83,52.17a3.47,3.47,0,0,1-1,.74,2.38,2.38,0,0,1-1.05.25,1.85,1.85,0,0,1-1.38-.52,1.91,1.91,0,0,1-.51-1.4,2.16,2.16,0,0,1,.24-1,1.79,1.79,0,0,1,.66-0.7,3.45,3.45,0,0,1,1.27-.37,7,7,0,0,0,1.68-.4V48.42a1.47,1.47,0,0,0-.25-1A1.34,1.34,0,0,0,85.44,47a1.5,1.5,0,0,0-1,.27,1.77,1.77,0,0,0-.48,1l-0.92-.15a2.56,2.56,0,0,1,.8-1.58,2.63,2.63,0,0,1,1.72-.5,2.46,2.46,0,0,1,1.36.33,1.4,1.4,0,0,1,.63.81,5.76,5.76,0,0,1,.13,1.41v1.52a19.5,19.5,0,0,0,.06,2A3,3,0,0,0,88,53H87A2.84,2.84,0,0,1,86.83,52.17Zm-0.08-2.55a6,6,0,0,1-1.53.43,2.86,2.86,0,0,0-.83.23,0.91,0.91,0,0,0-.36.37,1.12,1.12,0,0,0-.13.55,1,1,0,0,0,.3.77,1.14,1.14,0,0,0,.83.29A1.66,1.66,0,0,0,85.94,52a1.63,1.63,0,0,0,.61-0.7,3.1,3.1,0,0,0,.2-1.27V49.62Z"/><path class="cls-21" d="M89,53V46.26h0.84v1a2.86,2.86,0,0,1,.59-0.94,0.91,0.91,0,0,1,.61-0.23,1.6,1.6,0,0,1,1,.37l-0.32,1.06A1.17,1.17,0,0,0,91,47.29a0.83,0.83,0,0,0-.55.21,1.13,1.13,0,0,0-.35.58A5.28,5.28,0,0,0,90,49.47V53H89Z"/><path class="cls-21" d="M96,53V52.15a1.91,1.91,0,0,1-.65.75,1.57,1.57,0,0,1-.86.26,2.09,2.09,0,0,1-1.69-.92,4.16,4.16,0,0,1-.71-2.6,5.3,5.3,0,0,1,.32-1.95,2.61,2.61,0,0,1,.85-1.19,1.94,1.94,0,0,1,1.18-.39,1.6,1.6,0,0,1,.86.24A2,2,0,0,1,96,47V43.69h0.95V53H96Zm-3-3.36a3.35,3.35,0,0,0,.45,1.94,1.3,1.3,0,0,0,1.06.63,1.26,1.26,0,0,0,1-.61,3.15,3.15,0,0,0,.44-1.84,3.78,3.78,0,0,0-.44-2.07,1.3,1.3,0,0,0-1.1-.65,1.22,1.22,0,0,0-1,.63A3.56,3.56,0,0,0,93.07,49.64Z"/><path class="cls-21" d="M97.89,51l0.93-.18a1.67,1.67,0,0,0,.45,1.06,1.58,1.58,0,0,0,1.92,0,1,1,0,0,0,.33-0.76,0.74,0.74,0,0,0-.29-0.62,3.6,3.6,0,0,0-1-.38,7,7,0,0,1-1.46-.57,1.6,1.6,0,0,1-.57-0.63A1.92,1.92,0,0,1,98,48a1.87,1.87,0,0,1,.55-1.4,2.09,2.09,0,0,1,1.53-.54,2.5,2.5,0,0,1,1.08.22,1.72,1.72,0,0,1,.71.6,2.59,2.59,0,0,1,.34,1.07l-0.91.15a1.1,1.1,0,0,0-1.2-1.1,1.42,1.42,0,0,0-.91.24,0.77,0.77,0,0,0-.3.62,0.69,0.69,0,0,0,.29.59,5.05,5.05,0,0,0,1,.4,7.63,7.63,0,0,1,1.5.59,1.49,1.49,0,0,1,.53.6,2,2,0,0,1,.19.9,2.09,2.09,0,0,1-.61,1.56,2.29,2.29,0,0,1-1.67.6A2.18,2.18,0,0,1,97.89,51Z"/></g><g class="cls-22"><path class="cls-23" d="M111.83,49.74l1,0.31a4.31,4.31,0,0,1-1.18,2.34,2.92,2.92,0,0,1-2,.77,3.11,3.11,0,0,1-1.81-.52A3.66,3.66,0,0,1,106.58,51a7,7,0,0,1-.48-2.7,6.32,6.32,0,0,1,.48-2.6,3.67,3.67,0,0,1,1.3-1.61,3.24,3.24,0,0,1,1.83-.54,2.81,2.81,0,0,1,1.9.69,3.72,3.72,0,0,1,1.11,2l-1,.29q-0.51-1.94-2-1.94a2.25,2.25,0,0,0-1.32.39,2.64,2.64,0,0,0-.89,1.22,5.62,5.62,0,0,0-.33,2.09,5,5,0,0,0,.67,2.87,2.09,2.09,0,0,0,1.79,1,2,2,0,0,0,1.42-.59A3.17,3.17,0,0,0,111.83,49.74Z"/></g><g class="cls-22"><path class="cls-21" d="M117.63,50.83l1,0.15a2.92,2.92,0,0,1-.87,1.63,2.3,2.3,0,0,1-1.56.55,2.34,2.34,0,0,1-1.9-.89,4,4,0,0,1-.73-2.57,4.18,4.18,0,0,1,.73-2.66,2.28,2.28,0,0,1,1.86-.92,2.2,2.2,0,0,1,1.79.9,4.11,4.11,0,0,1,.72,2.61v0.3h-4.13a2.91,2.91,0,0,0,.53,1.71,1.42,1.42,0,0,0,1.14.58A1.57,1.57,0,0,0,117.63,50.83ZM114.55,49h3.09a2.57,2.57,0,0,0-.37-1.31,1.36,1.36,0,0,0-2.22-.1A2.3,2.3,0,0,0,114.55,49Z"/><path class="cls-21" d="M119.65,53V46.26h0.84v1a2.87,2.87,0,0,1,.59-0.94,0.91,0.91,0,0,1,.61-0.23,1.6,1.6,0,0,1,1,.37l-0.32,1.06a1.17,1.17,0,0,0-.68-0.25,0.83,0.83,0,0,0-.55.21,1.14,1.14,0,0,0-.35.58,5.3,5.3,0,0,0-.18,1.39V53h-0.93Z"/><path class="cls-21" d="M126.84,50.83l1,0.15a2.93,2.93,0,0,1-.87,1.63,2.3,2.3,0,0,1-1.56.55,2.33,2.33,0,0,1-1.9-.89,4,4,0,0,1-.73-2.57,4.18,4.18,0,0,1,.73-2.66,2.28,2.28,0,0,1,1.86-.92,2.2,2.2,0,0,1,1.79.9,4.12,4.12,0,0,1,.72,2.61v0.3h-4.13a2.91,2.91,0,0,0,.53,1.71,1.42,1.42,0,0,0,1.14.58A1.57,1.57,0,0,0,126.84,50.83ZM123.77,49h3.08a2.57,2.57,0,0,0-.37-1.31,1.36,1.36,0,0,0-2.22-.1A2.3,2.3,0,0,0,123.77,49Z"/><path class="cls-21" d="M128.87,53V46.26h0.84V47.2a2.14,2.14,0,0,1,.72-0.81,1.72,1.72,0,0,1,1-.28,1.6,1.6,0,0,1,1,.3,1.63,1.63,0,0,1,.57.88,2.56,2.56,0,0,1,.76-0.88,1.65,1.65,0,0,1,1-.29,1.56,1.56,0,0,1,1.25.54,2.64,2.64,0,0,1,.46,1.73V53h-0.93V48.75a3.47,3.47,0,0,0-.11-1,0.92,0.92,0,0,0-.34-0.47,0.9,0.9,0,0,0-.53-0.17,1.21,1.21,0,0,0-1,.48,2.41,2.41,0,0,0-.38,1.51V53h-0.93V48.62a2,2,0,0,0-.26-1.18,0.84,0.84,0,0,0-.71-0.34,1.18,1.18,0,0,0-1,.52,3.44,3.44,0,0,0-.37,1.89V53h-0.93Z"/><path class="cls-21" d="M137.26,49.63A4.06,4.06,0,0,1,138,47a2.37,2.37,0,0,1,3.7,0,3.9,3.9,0,0,1,.74,2.56,4.2,4.2,0,0,1-.73,2.7,2.38,2.38,0,0,1-3.71,0A4,4,0,0,1,137.26,49.63Zm1,0a3.26,3.26,0,0,0,.48,1.95,1.43,1.43,0,0,0,1.18.64,1.38,1.38,0,0,0,1.13-.65,3.28,3.28,0,0,0,.47-1.94,3.24,3.24,0,0,0-.48-1.94,1.43,1.43,0,0,0-1.18-.64,1.38,1.38,0,0,0-1.14.64A3.28,3.28,0,0,0,138.22,49.63Z"/><path class="cls-21" d="M143.42,53V46.26h0.84v1a2.19,2.19,0,0,1,.74-0.83,1.88,1.88,0,0,1,1-.27,1.93,1.93,0,0,1,.82.17,1.68,1.68,0,0,1,.61.46,1.87,1.87,0,0,1,.35.73,6.12,6.12,0,0,1,.11,1.38V53H147V48.9a3.37,3.37,0,0,0-.13-1.09,1.08,1.08,0,0,0-.4-0.53,1.07,1.07,0,0,0-.62-0.19,1.3,1.3,0,0,0-1.07.5,2.82,2.82,0,0,0-.4,1.72V53h-0.93Z"/><path class="cls-21" d="M149.18,55.6l-0.1-1.07a1.77,1.77,0,0,0,.53.1,0.91,0.91,0,0,0,.49-0.12,0.9,0.9,0,0,0,.32-0.37q0-.09.37-1.12l-2.1-6.75h1l1.16,3.9q0.22,0.73.4,1.56,0.16-.79.38-1.54l1.18-3.93h0.94l-2.1,6.86a12,12,0,0,1-.65,1.78,1.69,1.69,0,0,1-.54.64,1.23,1.23,0,0,1-.68.2A1.59,1.59,0,0,1,149.18,55.6Z"/></g></g></g></g></svg>